<svg width="53" height="47" viewBox="0 0 53 47" fill="none" xmlns="http://www.w3.org/2000/svg">
<path d="M2.93984 46.56C1.85984 46.56 1.09984 45.76 0.659843 44.16C0.619843 44.08 0.599843 43.76 0.599843 43.2C0.599843 40.24 2.73984 35.28 7.01984 28.32C8.85984 25.24 10.5798 22.54 12.1798 20.22C13.8198 17.94 15.3198 16.02 16.6798 14.46C16.6798 10.66 16.1998 8.76 15.2398 8.76C14.8798 8.76 14.2998 9.1 13.4998 9.78C12.6998 10.42 11.7798 11.38 10.7398 12.66C10.4198 13.06 10.1398 13.26 9.89984 13.26C9.69984 13.26 9.59984 13.16 9.59984 12.96C9.59984 12.92 9.65984 12.8 9.77984 12.6C9.89984 12.36 10.1398 12.04 10.4998 11.64C11.1398 10.84 11.8198 10 12.5398 9.12C13.2998 8.2 14.0398 7.44 14.7598 6.84C15.4798 6.2 16.1398 5.88 16.7398 5.88C17.9398 5.88 18.6598 6.4 18.8998 7.44L19.1398 10.32C22.3798 5.96 25.0398 3.78 27.1198 3.78C29.2798 3.78 30.3598 4.74 30.3598 6.66C30.3598 8.66 29.3598 11.02 27.3598 13.74C25.2798 16.58 23.2598 18 21.2998 18C20.1398 18 19.2198 17.6 18.5398 16.8C18.6598 19.68 18.2798 22.7 17.3998 25.86C16.5598 29.06 15.2598 32.42 13.4998 35.94C9.81984 43.02 6.29984 46.56 2.93984 46.56ZM21.4798 16.74C23.0798 16.74 24.4998 15.72 25.7398 13.68C26.8598 11.8 27.4198 10.04 27.4198 8.4C27.4198 6.68 26.8398 5.82 25.6798 5.82C24.2798 5.82 22.0998 7.92 19.1398 12.12C19.1398 12.72 19.0798 13.62 18.9598 14.82C19.5198 16.1 20.3598 16.74 21.4798 16.74ZM4.25984 45C6.73984 44.88 9.39984 41.18 12.2398 33.9C15.1198 26.94 16.4598 21.12 16.2598 16.44C14.1798 18.6 11.4998 22.88 8.21984 29.28C6.49984 32.64 5.23984 35.48 4.43984 37.8C3.59984 40.12 3.17984 41.92 3.17984 43.2C3.17984 44.4 3.53984 45 4.25984 45ZM38.4069 18.18C38.0069 18.18 37.5869 18.12 37.1469 18C35.9469 17.72 34.6069 16.92 33.1269 15.6C31.5269 14.12 30.7269 12.86 30.7269 11.82C30.7269 10.94 31.0669 10.5 31.7469 10.5C32.2669 10.5 32.7669 10.82 33.2469 11.46C34.6469 10.34 35.9669 9.06 37.2069 7.62C38.4469 6.18 39.5869 4.56 40.6269 2.76L41.9469 0.479998C41.9869 0.319999 42.1069 0.24 42.3069 0.24C42.7069 0.24 43.1069 0.499999 43.5069 1.02C43.9469 1.5 44.1669 1.94 44.1669 2.34C44.1669 2.62 43.9269 3.12 43.4469 3.84C42.9269 4.48 42.6669 5.16 42.6669 5.88C42.6669 6.16 42.6869 6.6 42.7269 7.2C42.7669 7.76 42.7869 8.2 42.7869 8.52C42.7869 12.2 42.1869 14.92 40.9869 16.68C41.2269 16.72 41.4869 16.76 41.7669 16.8C42.0869 16.8 42.3869 16.8 42.6669 16.8C44.2669 16.8 45.5669 16.66 46.5669 16.38C47.6069 16.06 48.5469 15.52 49.3869 14.76C50.2269 14 51.1469 12.96 52.1469 11.64C52.2669 11.48 52.4069 11.4 52.5669 11.4C52.7269 11.4 52.8069 11.52 52.8069 11.76C52.8069 11.88 52.7469 12.04 52.6269 12.24C52.5469 12.44 52.4669 12.58 52.3869 12.66C50.9469 14.62 49.4669 16 47.9469 16.8C46.4669 17.6 44.5069 18 42.0669 18C41.3069 18 40.5669 17.94 39.8469 17.82C39.4469 18.06 38.9669 18.18 38.4069 18.18ZM38.4669 15.96C39.7469 15.72 40.3869 14.04 40.3869 10.92C40.3869 10.12 40.3469 9.32 40.2669 8.52C40.2269 7.68 40.1269 6.82 39.9669 5.94C38.5269 8.06 36.5069 10.2 33.9069 12.36C35.1069 14 36.6269 15.2 38.4669 15.96Z" fill="black"/>
</svg>
